<svg width="547" height="547" viewBox="0 0 547 547" fill="none" xmlns="http://www.w3.org/2000/svg">
<g clip-path="url(#clip0)">
<path fill-rule="evenodd" clip-rule="evenodd" d="M172.813 72.1945L185.431 79.4792L200.932 88.429L213.355 95.6013L213.354 109.976L213.346 210.549L163.348 181.683L163.352 135.73L99.091 173.685L98.8619 268.57L159.958 236.51L172.172 230.1L184.069 236.969L283.498 294.374L295.954 301.566L295.919 315.979L295.67 418.927L295.637 432.856L283.774 440.214L182.703 502.907L169.864 510.87L156.884 503.266L144.036 495.738L131.716 488.52L131.751 474.212L131.972 382.735L98.6326 363.487L98.3758 469.797L48.4459 440.97L48.6522 355.59L48.6626 351.266L48.7623 309.979L49.1256 159.517L49.1601 145.229L61.489 137.947L160.216 79.6351L172.813 72.1945ZM116.247 315.801L169.585 346.596L182.041 353.787L182.006 368.201L181.822 444.743L245.704 405.118L245.884 330.514L170.809 287.169L116.247 315.801Z" fill="black"/>
<path fill-rule="evenodd" clip-rule="evenodd" d="M370.813 35.1945L383.431 42.4792L398.932 51.429L411.355 58.6013L411.354 72.9758L411.346 173.549L361.348 144.683L361.352 98.7296L297.091 136.685L296.862 231.57L357.958 199.51L370.172 193.1L382.069 199.969L481.498 257.374L493.954 264.566L493.919 278.979L493.67 381.927L493.637 395.856L481.774 403.214L380.703 465.907L367.864 473.87L354.884 466.266L342.036 458.738L329.716 451.52L329.751 437.212L329.972 345.735L296.633 326.487L296.376 432.797L246.446 403.97L246.652 318.59L246.663 314.266L246.762 272.979L247.126 122.517L247.16 108.229L259.489 100.947L358.216 42.6351L370.813 35.1945ZM314.247 278.801L367.585 309.596L380.041 316.787L380.006 331.201L379.822 407.743L443.704 368.118L443.884 293.514L368.809 250.169L314.247 278.801Z" fill="black"/>
</g>
<defs>
<clipPath id="clip0">
<rect width="547" height="547" fill="white"/>
</clipPath>
</defs>
</svg>
