<svg width="513" height="746" viewBox="0 0 513 746" fill="none" xmlns="http://www.w3.org/2000/svg">
<circle cx="188" cy="393" r="70" stroke="#6C63FF" stroke-width="126"/>
<path opacity="0.1" d="M264.5 714C368.053 714 452 706.389 452 697C452 687.611 368.053 680 264.5 680C160.947 680 77 687.611 77 697C77 706.389 160.947 714 264.5 714Z" fill="black"/>
<path d="M266.12 71.8706C254.182 52.001 230.563 51.075 230.563 51.075C230.563 51.075 207.548 48.1759 192.784 78.4376C179.023 106.644 160.03 133.878 189.726 140.481L195.09 124.036L198.412 141.705C202.64 142.005 206.882 142.076 211.118 141.919C242.92 140.908 273.206 142.215 272.231 130.974C270.935 116.031 277.607 90.9892 266.12 71.8706Z" fill="#2F2E41"/>
<path d="M214 260L217.041 290L287.48 282.501L289 260H214Z" fill="#A0616A"/>
<path d="M206.67 276.578L204.646 294.383C204.646 294.383 181.368 326.94 183.393 382.897C185.417 438.854 151.512 687.61 175.802 689.645C200.092 691.68 243.611 694.732 245.635 687.101C247.659 679.471 251.708 390.019 251.708 390.019C251.708 390.019 262.335 687.462 280.552 688.48C298.769 689.497 360 691.532 360 683.901C360 676.271 306.36 335.588 306.36 335.588L297.757 307.1L289.155 272C289.155 272 235.515 281.157 220.839 277.596C206.164 274.035 206.67 276.578 206.67 276.578Z" fill="#2F2E41"/>
<path d="M230.5 135C248.449 135 263 120.449 263 102.5C263 84.5507 248.449 70 230.5 70C212.551 70 198 84.5507 198 102.5C198 120.449 212.551 135 230.5 135Z" fill="#A0616A"/>
<path d="M288 157.092L281.802 166.068L277.833 171.81L271.166 181.462L238.009 184C238.009 184 229.954 181.411 220.66 177.628C217.227 176.227 213.621 174.664 210.193 173.003C196.894 166.576 186.222 158.732 198.22 153.538C200.351 152.628 202.397 151.534 204.337 150.269C206.101 149.121 207.743 147.798 209.239 146.319C212.312 143.254 214.588 139.489 215.868 135.35C217.148 131.211 217.394 126.824 216.584 122.569L248.721 118C247.788 126.113 255.894 134.962 264.979 142.186C267.963 144.568 271.059 146.766 273.972 148.705C281.608 153.792 288 157.092 288 157.092Z" fill="#A0616A"/>
<path d="M243.604 166.481C243.604 166.481 212.405 161.156 205.303 150C205.303 150 174.613 153.803 177.149 170.03C179.685 186.258 205.05 275 205.05 275C205.05 275 268.461 262.83 291.796 271.957L306 158.874C306 158.874 300.927 147.718 291.289 150.761C281.65 153.803 277.846 151.014 277.846 151.014C277.846 151.014 266.939 166.481 243.604 166.481Z" fill="#D0CDE1"/>
<path d="M272.484 345C272.484 345 294.596 369.396 282.255 373.462C269.913 377.528 255 357.198 255 357.198L272.484 345Z" fill="#A0616A"/>
<path d="M279.673 347C279.673 347 261.856 358.827 268.474 366.712C275.092 374.596 298 359.813 298 356.856C298 353.899 279.673 347 279.673 347Z" fill="#A0616A"/>
<path d="M236 281.447L221.035 284L211.23 211.992C211.796 198.928 211.359 185.841 209.924 172.842C208.83 164.16 207.003 155.816 204 149.973C205.785 148.819 207.447 147.487 208.959 146C212.551 151.633 219.105 163.563 220.513 177.495C220.882 180.983 220.883 184.5 220.519 187.989C217.938 211.992 218.454 216.588 218.454 216.588L236 281.447Z" fill="#2F2E41"/>
<path d="M201.659 154.536C201.659 154.536 177.733 147.91 175.697 162.181C173.66 176.453 176.206 213.151 181.805 226.912C187.405 240.674 206.749 285.527 206.749 285.527C206.749 285.527 241.875 330.38 243.402 341.083C244.929 351.787 252.565 363 252.565 363L277 347.2L229.148 266.159L208.277 210.092C208.277 210.092 216.931 159.123 201.659 154.536Z" fill="#D0CDE1"/>
<path d="M295.028 157L306.045 159.535C306.045 159.535 316.06 203.137 312.054 226.459C308.048 249.781 307.547 257.893 307.547 257.893L304.042 324.31C304.042 324.31 305.043 366.898 298.032 360.307C291.022 353.716 277 350.674 277 350.674C277 350.674 278.502 331.915 284.011 327.352C284.011 327.352 290.521 292.369 286.515 277.159C282.509 261.949 295.028 157 295.028 157Z" fill="#D0CDE1"/>
<path d="M300 205.861L286.9 281L278.937 277.689L292.808 205.861L277.946 171.725L265 142C268.005 144.389 271.124 146.595 274.057 148.541L281.943 165.963L300 205.861Z" fill="#2F2E41"/>
<path d="M260.912 70.0645L238.07 58L206.526 62.9355L200 92L216.246 91.3697L220.785 80.6917V91.1941L228.281 90.9027L232.631 73.9027L235.351 92L262 91.4514L260.912 70.0645Z" fill="#2F2E41"/>
<path d="M215.5 697C224.06 697 231 694.314 231 691C231 687.686 224.06 685 215.5 685C206.94 685 200 687.686 200 691C200 694.314 206.94 697 215.5 697Z" fill="#2F2E41"/>
<path d="M321.5 697C330.06 697 337 694.314 337 691C337 687.686 330.06 685 321.5 685C312.94 685 306 687.686 306 691C306 694.314 312.94 697 321.5 697Z" fill="#2F2E41"/>
<mask id="mask0" mask-type="alpha" maskUnits="userSpaceOnUse" x="55" y="260" width="266" height="266">
<circle cx="188" cy="393" r="86" fill="#6C63FF" stroke="#6C63FF" stroke-width="94"/>
</mask>
<g mask="url(#mask0)">
<g filter="url(#filter0_d)">
<path d="M232 356C200.86 362.839 159.416 367.007 129.218 362.655L167.126 391.3L61 459.219L66.7078 468L172.835 400.082L183.503 446.172C191.962 417.08 212.883 381.337 232 356Z" fill="#FF6363"/>
</g>
</g>
<defs>
<filter id="filter0_d" x="55" y="350" width="191" height="132" filterUnits="userSpaceOnUse" color-interpolation-filters="sRGB">
<feFlood flood-opacity="0" result="BackgroundImageFix"/>
<feColorMatrix in="SourceAlpha" type="matrix" values="0 0 0 0 0 0 0 0 0 0 0 0 0 0 0 0 0 0 127 0"/>
<feOffset dx="4" dy="4"/>
<feGaussianBlur stdDeviation="5"/>
<feColorMatrix type="matrix" values="0 0 0 0 0 0 0 0 0 0 0 0 0 0 0 0 0 0 0.5 0"/>
<feBlend mode="normal" in2="BackgroundImageFix" result="effect1_dropShadow"/>
<feBlend mode="normal" in="SourceGraphic" in2="effect1_dropShadow" result="shape"/>
</filter>
</defs>
</svg>
